<?xml version="1.0" encoding="UTF-8"?>
<svg id="Objects" xmlns="http://www.w3.org/2000/svg" viewBox="0 0 1434.96 1795.07">
  <defs>
    <style>
      .cls-1 {
        fill: #fff;
        stroke-width: 0px;
      }
    </style>
  </defs>
  <path class="cls-1" d="M1434.2,565.16c-7.88,111.31-60.09,262.66-196.78,464.23,7.93,243.66-41.6,501.21-83.2,641.86-14.53,49.15-45.56,123.82-105.68,123.82-88.45,0-93.63-261.42-143.13-446.04-19.83-73.94-124.97-73.94-144.8,0-49.5,184.63-54.7,446.04-143.13,446.04-60.13,0-91.15-74.66-105.7-123.82-41.6-140.65-91.13-398.2-83.2-641.86-136.69-201.58-188.89-352.92-196.77-464.23-7.89-111.3,46.15-234.52,150.9-272.93,101.49-37.2,198.91-22.77,320.74,36.35,101.03,49.03,182.75,132.24,316.48,164.93,0,0-103.35-51.18-153.53-111.27,38.06-19.32,68.26-39.17,96.17-53.66,120.18-62.4,219.25-73.56,320.73-36.35,104.77,38.41,158.81,161.63,150.91,272.93Z"/>
  <path class="cls-1" d="M336.45,230.23c-127.47,22.51-145.72,40.75-168.23,168.22C145.72,270.98,127.47,252.73,0,230.23c127.47-22.51,145.72-40.75,168.23-168.23,22.51,127.47,40.75,145.72,168.23,168.23Z"/>
  <path class="cls-1" d="M506,102.5c-77.67,13.71-88.79,24.83-102.5,102.5-13.71-77.67-24.83-88.79-102.5-102.5,77.67-13.71,88.79-24.83,102.5-102.5,13.71,77.67,24.83,88.79,102.5,102.5Z"/>
  <path class="cls-1" d="M131,466.5c-43.57,7.69-49.81,13.93-57.5,57.5-7.69-43.57-13.93-49.81-57.5-57.5,43.57-7.69,49.81-13.93,57.5-57.5,7.69,43.57,13.93,49.81,57.5,57.5Z"/>
</svg>